<?xml version="1.0" encoding="utf-8"?>
<!-- Generator: Adobe Illustrator 24.3.0, SVG Export Plug-In . SVG Version: 6.00 Build 0)  -->
<svg version="1.1" id="Layer_1" xmlns="http://www.w3.org/2000/svg" xmlns:xlink="http://www.w3.org/1999/xlink" x="0px" y="0px"
	 viewBox="0 0 142 70" style="enable-background:new 0 0 142 70;" xml:space="preserve">
<style type="text/css">
	.st0{fill:#45F882;}
</style>
<g>
	<g>
		<g>
			<path class="st0" d="M33.2,24.7c0.6,0.6,0.8,1.3,0.8,2.1s-0.3,1.5-0.8,2.1c-0.6,0.6-1.3,0.8-2.1,0.8h-8.7c-2.1,0-3.8,0.7-5.3,2.2
				s-2.2,3.3-2.2,5.4V39h11.9c0.8,0,1.5,0.3,2.1,0.9c0.6,0.6,0.8,1.3,0.8,2.1s-0.3,1.4-0.8,2c-0.6,0.6-1.3,0.9-2.1,0.9H14.9v12.3
				c0,0.8-0.3,1.5-0.9,2.1c-0.6,0.6-1.3,0.8-2.1,0.8s-1.5-0.3-2.1-0.8S9,58,9,57.2V37.3c0-3.7,1.3-6.8,3.9-9.5c2.6-2.6,5.8-4,9.5-4
				h8.7C31.9,23.9,32.6,24.2,33.2,24.7z"/>
			<path class="st0" d="M37.9,56.5c-2.6-2.5-3.8-5.6-3.8-9.2V36c0-0.8,0.3-1.5,0.8-2.1c0.6-0.6,1.3-0.8,2.1-0.8s1.5,0.3,2.1,0.8
				c0.6,0.6,0.9,1.3,0.9,2.1v11.3c0,1.9,0.7,3.6,2.1,5.1c1.4,1.4,3.1,2.1,5.2,2.1c2,0,3.8-0.7,5.2-2.1c1.4-1.4,2.2-3.1,2.2-5.1V36
				c0-0.8,0.3-1.5,0.9-2.1c0.6-0.6,1.3-0.8,2.1-0.8s1.5,0.3,2.1,0.8c0.6,0.6,0.9,1.3,0.9,2.1v11.3c0,3.6-1.3,6.7-3.9,9.2
				c-2.6,2.5-5.7,3.8-9.3,3.8C43.6,60.3,40.5,59,37.9,56.5z"/>
			<path class="st0" d="M66.1,59.2c-0.6-0.6-0.9-1.3-0.9-2.1V46c0-3.6,1.3-6.7,3.8-9.2c2.6-2.5,5.7-3.8,9.3-3.8s6.8,1.3,9.3,3.8
				c2.6,2.6,3.9,5.6,3.9,9.2v11.1c0,0.8-0.3,1.5-0.8,2.1c-0.6,0.6-1.3,0.8-2.1,0.8s-1.5-0.3-2.1-0.8c-0.6-0.6-0.9-1.3-0.9-2.1V46
				c0-1.9-0.7-3.6-2.2-5c-1.4-1.4-3.2-2.1-5.2-2.1S74.4,39.6,73,41s-2.1,3.1-2.1,5v11.1c0,0.8-0.3,1.5-0.9,2.1S68.7,60,68,60
				C67.4,60,66.7,59.8,66.1,59.2z"/>
		</g>
		<g>
			<g>
				<path class="st0" d="M97.8,59.9c-1.5,0-2.8-1.3-2.8-2.8V35.8c0-1.5,1.3-2.8,2.8-2.8s2.8,1.3,2.8,2.8v21.3
					C100.6,58.6,99.4,59.9,97.8,59.9z"/>
			</g>
		</g>
		<path class="st0" d="M104,20.1c0-5.1-2-8.6-5.9-10.4c-5,1.8-6.5,5.8-6.2,10.9c-3.8,2.7-5.1,6-3.9,9.9c1.3-1.8,2.9-2.8,4.6-2.7
			c1.4,1,2.2,2.3,2.5,3.7h5.7c0.3-1.4,1-2.6,2.1-3.7c1.9,0.4,3.5,1.2,4.7,2.6C108.8,26.3,107.4,23,104,20.1z M97.8,22.8
			c-1.5,0-2.8-1.2-2.8-2.8c0-1.5,1.2-2.8,2.8-2.8c1.5,0,2.8,1.2,2.8,2.8C100.6,21.6,99.3,22.8,97.8,22.8z"/>
		<g>
			<path class="st0" d="M119.6,46c-2.3,0-4.5-0.9-6.2-2.7l-6.3-6.6c-0.8-0.8-0.8-2.2,0.1-3c0.8-0.8,2.2-0.8,3,0.1l6.3,6.6
				c0.8,0.9,1.9,1.3,3.1,1.3s2.3-0.5,3.1-1.3l6.4-6.7c0.8-0.8,2.2-0.9,3-0.1c0.8,0.8,0.9,2.2,0.1,3l-6.4,6.7
				C124.1,45.1,121.9,46,119.6,46z"/>
		</g>
		<g>
			<path class="st0" d="M130.8,60c-0.6,0-1.2-0.2-1.6-0.7l-6.5-6.9c-0.8-0.9-2-1.4-3.1-1.4c-1.2,0-2.3,0.5-3.1,1.4l-6.5,6.8
				c-0.8,0.9-2.2,0.9-3.1,0.1c-0.9-0.8-0.9-2.2-0.1-3.1l6.5-6.8c1.7-1.8,3.9-2.7,6.3-2.7s4.6,1,6.3,2.7l6.5,6.9
				c0.8,0.9,0.8,2.2-0.1,3.1C131.9,59.8,131.4,60,130.8,60z"/>
		</g>
	</g>
</g>
</svg>
